<?xml version="1.0" standalone="no"?>
<!DOCTYPE svg PUBLIC "-//W3C//DTD SVG 20010904//EN"
 "http://www.w3.org/TR/2001/REC-SVG-20010904/DTD/svg10.dtd">
<svg version="1.0" xmlns="http://www.w3.org/2000/svg"
 width="4024.000000pt" height="1056.000000pt" viewBox="0 0 4024.000000 1056.000000"
 preserveAspectRatio="xMidYMid meet">

<g transform="translate(0.000000,1056.000000) scale(0.100000,-0.100000)"
fill="#000000" stroke="none">
<path d="M9765 10554 c-11 -3 -58 -12 -105 -21 -538 -101 -1172 -453 -1644
-913 -279 -272 -486 -555 -606 -828 -25 -57 -46 -98 -48 -93 -4 13 81 263 124
363 55 129 142 290 242 447 51 78 92 145 92 148 0 2 -55 -38 -122 -89 -145
-109 -384 -344 -487 -478 -295 -383 -490 -801 -621 -1331 -83 -336 -128 -684
-137 -1059 -15 -627 89 -1228 313 -1804 314 -806 881 -1408 1587 -1684 492
-193 1052 -214 1627 -61 570 151 1213 541 1660 1005 244 253 486 583 671 912
309 549 522 1230 591 1882 20 189 17 698 -6 880 -60 499 -176 886 -388 1302
-142 279 -291 491 -487 691 -220 225 -420 371 -696 507 -177 88 -301 133 -510
188 l-140 36 -445 2 c-245 1 -454 0 -465 -2z m575 -1028 c285 -66 525 -199
730 -405 138 -139 231 -272 330 -475 81 -166 121 -283 155 -450 68 -339 52
-610 -55 -915 -23 -64 -44 -125 -47 -136 -19 -59 208 174 291 299 103 154 156
301 173 476 l6 75 19 -60 c26 -87 55 -233 73 -370 110 -834 -191 -1830 -763
-2519 -433 -521 -959 -838 -1567 -942 -138 -24 -417 -24 -540 -1 -329 64 -593
209 -822 451 -115 121 -204 252 -287 421 -107 217 -162 397 -187 608 -16 143
-6 415 20 535 24 109 79 277 114 350 16 32 21 52 14 52 -23 0 -234 -227 -290
-312 -103 -154 -153 -287 -183 -482 -8 -55 -16 -101 -18 -103 -5 -5 -75 324
-91 432 -23 143 -30 464 -16 621 50 535 275 1161 580 1619 474 712 1110 1137
1866 1249 68 10 431 -3 495 -18z"/>
<path d="M8486 7692 c-15 -143 -76 -1420 -76 -1604 l0 -97 88 -67 c262 -203
569 -365 921 -488 l131 -45 0 162 c0 241 -36 1310 -48 1442 l-7 70 -90 68
c-70 52 -847 579 -902 610 -7 5 -13 -11 -17 -51z"/>
<path d="M10489 7477 c-223 -139 -467 -292 -542 -340 -125 -81 -137 -92 -144
-125 -11 -51 -6 -753 7 -1007 6 -115 13 -297 17 -402 3 -106 10 -193 14 -193
5 0 32 14 61 31 87 52 672 370 833 454 83 43 156 82 163 88 9 7 12 195 12 878
0 478 -3 869 -7 868 -5 0 -190 -114 -414 -252z"/>
<path d="M0 6800 l0 -2670 475 0 475 0 0 784 0 784 748 5 c801 5 870 9 1137
61 561 110 974 406 1203 861 82 165 135 332 173 550 26 146 36 505 20 671 -48
474 -201 834 -466 1099 -126 126 -244 209 -410 290 -149 73 -262 114 -425 155
-298 75 -403 80 -1782 80 l-1148 0 0 -2670z m2405 1790 c476 -64 737 -301 816
-740 22 -120 17 -432 -8 -550 -82 -380 -317 -612 -698 -689 -167 -33 -344 -41
-967 -41 l-598 0 0 1018 0 1017 687 -2 c420 -2 719 -7 768 -13z"/>
<path d="M15750 6800 l0 -2670 485 0 485 0 0 955 0 955 411 0 c376 0 419 -2
512 -21 234 -47 378 -141 507 -329 20 -30 207 -394 414 -807 l377 -753 534 0
c294 0 535 2 535 4 0 3 -199 404 -443 893 -266 535 -464 920 -497 968 -65 94
-177 215 -239 258 l-44 30 89 42 c226 106 487 330 623 534 204 308 303 710
271 1106 -73 908 -644 1416 -1680 1495 -80 6 -581 10 -1237 10 l-1103 0 0
-2670z m2335 1786 c456 -81 685 -326 703 -751 14 -338 -97 -606 -313 -761
-139 -99 -334 -164 -550 -184 -60 -5 -359 -10 -662 -10 l-553 0 0 858 c0 472
2 861 4 863 3 3 290 4 638 4 562 -1 644 -3 733 -19z"/>
<path d="M22460 9040 c0 -403 1 -430 18 -430 9 0 400 -1 867 -3 l850 -2 3
-2237 2 -2238 480 0 480 0 2 2238 3 2237 862 0 863 0 0 433 0 432 -2215 0
-2215 0 0 -430z"/>
<path d="M30811 9448 c-25 -63 -505 -1258 -691 -1718 -270 -671 -543 -1360
-677 -1710 -231 -602 -501 -1288 -677 -1714 -37 -87 -66 -162 -66 -167 0 -5
213 -8 502 -7 l502 3 24 60 c31 75 337 868 400 1033 l46 122 1113 0 c1052 0
1114 -1 1120 -17 14 -39 414 -1063 441 -1128 l29 -70 521 -3 c287 -1 522 0
522 2 0 3 -77 191 -171 418 -94 227 -231 562 -305 743 -75 182 -185 452 -246
600 -61 149 -186 457 -278 685 -92 228 -286 705 -430 1060 -144 355 -368 906
-497 1225 -129 319 -237 586 -240 593 -4 9 -107 12 -469 12 l-464 0 -9 -22z
m563 -1379 c139 -389 146 -407 371 -989 114 -294 241 -620 281 -724 40 -105
72 -191 70 -193 -1 -2 -370 -2 -819 -1 l-815 3 128 340 c70 187 169 448 220
580 91 237 264 704 395 1068 37 103 69 186 71 184 2 -2 46 -122 98 -268z"/>
<path d="M36950 6800 l0 -2670 1645 0 1645 0 0 435 0 435 -1160 0 -1160 0 0
2235 0 2235 -485 0 -485 0 0 -2670z"/>
<path d="M955 1938 c-250 -15 -465 -106 -640 -269 -274 -256 -374 -630 -274
-1023 42 -167 108 -284 228 -409 94 -98 172 -158 268 -206 l62 -31 462 0 462
0 65 36 c78 43 161 105 222 169 l45 46 -130 124 c-71 68 -132 124 -135 125 -3
0 -30 -23 -60 -51 -134 -126 -242 -170 -430 -177 -93 -3 -143 0 -195 12 -233
55 -417 243 -471 482 -25 113 -16 314 18 406 71 189 199 317 390 386 67 25 85
27 223 27 137 -1 156 -3 223 -27 90 -33 166 -78 237 -140 29 -27 55 -48 58
-48 3 0 63 56 133 124 l129 124 -25 27 c-96 106 -303 226 -455 265 -100 26
-266 37 -410 28z"/>
<path d="M4705 1943 c-183 -15 -310 -50 -456 -124 -119 -61 -213 -139 -302
-249 -164 -205 -242 -474 -216 -749 13 -139 41 -240 99 -358 96 -195 229 -332
417 -428 l68 -35 457 0 457 0 66 35 c253 131 418 339 498 623 18 67 21 103 21
272 0 226 -13 289 -89 448 -54 113 -88 164 -168 249 -175 186 -394 288 -678
313 -63 5 -118 9 -124 8 -5 -1 -28 -3 -50 -5z m227 -372 c303 -78 494 -354
475 -686 -11 -183 -67 -315 -187 -435 -88 -89 -183 -140 -302 -164 -348 -71
-664 116 -754 444 -13 47 -18 103 -18 200 -1 154 18 234 82 350 43 79 147 185
222 227 52 30 156 67 210 76 70 12 202 6 272 -12z"/>
<path d="M12688 1939 c-229 -19 -442 -107 -609 -250 -132 -114 -253 -310 -300
-485 -27 -101 -37 -340 -19 -452 44 -275 198 -517 425 -667 136 -90 97 -85
616 -85 l459 0 68 34 c97 49 262 182 262 211 0 10 -204 216 -242 244 -16 12
-26 6 -83 -47 -126 -119 -235 -162 -425 -169 -148 -6 -213 7 -337 67 -206 101
-329 302 -341 555 -9 209 49 375 176 503 127 127 256 182 444 190 193 8 335
-40 478 -159 l71 -60 129 123 c72 67 130 125 130 129 0 3 -26 31 -57 61 -208
196 -502 286 -845 257z"/>
<path d="M27504 1938 c-262 -17 -476 -111 -657 -287 -133 -128 -217 -275 -270
-466 -19 -69 -22 -105 -22 -260 0 -164 3 -189 27 -275 33 -119 64 -189 123
-281 83 -128 206 -242 353 -325 l77 -44 461 0 462 0 56 29 c263 139 439 358
507 633 29 120 36 326 15 446 -63 361 -284 633 -622 764 -150 58 -314 79 -510
66z m246 -364 c118 -27 206 -78 295 -168 120 -121 178 -250 191 -421 31 -401
-244 -714 -628 -715 -397 -1 -672 304 -645 716 19 292 216 530 487 588 87 19
220 19 300 0z"/>
<path d="M31292 1940 c-129 -11 -222 -35 -327 -85 -113 -53 -189 -115 -248
-202 -143 -211 -124 -491 43 -652 102 -99 223 -151 551 -236 242 -63 344 -107
393 -168 26 -32 31 -48 34 -105 2 -56 -1 -74 -20 -107 -52 -89 -174 -135 -362
-135 -206 0 -378 53 -569 176 l-68 44 -26 -57 c-14 -32 -47 -106 -73 -165
l-48 -108 56 -34 c32 -19 91 -51 132 -70 l74 -36 489 0 489 0 62 33 c183 96
289 299 273 521 -11 145 -57 240 -163 335 -98 87 -195 127 -510 210 -263 69
-327 94 -385 150 -55 54 -69 105 -48 179 37 133 223 207 458 183 128 -14 203
-36 330 -97 62 -30 115 -54 117 -51 2 2 31 70 65 153 l60 149 -23 19 c-31 25
-131 71 -221 100 -146 48 -364 70 -535 56z"/>
<path d="M23667 1930 c-288 -49 -509 -231 -556 -458 -15 -73 -14 -206 3 -268
55 -208 229 -327 616 -424 393 -98 482 -153 482 -300 0 -95 -49 -158 -159
-201 -53 -21 -73 -23 -228 -23 -143 0 -183 4 -248 22 -93 26 -228 87 -315 144
-36 24 -67 37 -71 32 -7 -7 -110 -232 -138 -301 -6 -14 61 -60 164 -112 l81
-41 493 0 c559 0 518 -6 634 87 228 185 262 570 68 768 -108 110 -205 153
-545 244 -373 100 -438 141 -438 276 0 134 95 210 293 235 177 22 407 -31 569
-130 l48 -30 9 22 c5 13 34 85 64 160 l55 137 -22 14 c-90 59 -250 117 -393
142 -92 16 -381 19 -466 5z"/>
<path d="M7900 955 l0 -955 200 0 200 0 0 621 0 621 46 -63 c48 -64 313 -403
706 -902 l219 -277 200 0 199 0 0 955 0 955 -200 0 -200 0 0 -647 0 -647 -52
70 c-50 67 -332 423 -766 969 l-198 250 -177 3 -177 2 0 -955z"/>
<path d="M15587 1903 c-11 -11 -8 -1122 3 -1232 6 -55 20 -135 30 -178 52
-201 189 -380 354 -463 l59 -30 425 0 424 0 62 32 c75 39 207 170 255 251 43
72 79 172 96 262 9 52 14 239 16 715 l4 645 -196 3 -196 2 -6 -97 c-4 -54 -7
-334 -7 -623 0 -433 -3 -536 -15 -589 -51 -215 -203 -331 -435 -331 -190 0
-333 77 -404 219 -59 115 -59 121 -63 799 l-4 622 -198 0 c-109 0 -201 -3
-204 -7z"/>
<path d="M19480 956 l0 -956 205 0 205 0 0 270 0 270 219 0 220 0 168 -270
168 -270 223 0 224 0 -23 38 c-13 20 -65 102 -117 182 -172 263 -252 390 -252
400 0 6 5 10 11 10 23 0 147 91 200 147 111 116 162 260 162 453 1 345 -191
573 -547 652 -82 19 -138 21 -578 25 l-488 5 0 -956z m921 600 c182 -39 268
-138 277 -318 6 -124 -15 -186 -88 -259 -38 -38 -74 -63 -115 -80 -57 -22 -73
-24 -327 -27 l-268 -3 0 344 c0 189 3 347 7 350 13 14 445 7 514 -7z"/>
<path d="M36310 1740 l0 -170 320 0 320 0 0 -785 0 -785 205 0 205 0 0 785 0
785 315 0 315 0 0 170 0 170 -840 0 -840 0 0 -170z"/>
<path d="M39920 955 l0 -955 160 0 160 0 0 955 0 955 -160 0 -160 0 0 -955z"/>
</g>
</svg>
